<svg width="729px" height="60px" viewBox="0 0 729 60" version="1.1" xmlns="http://www.w3.org/2000/svg" xmlns:xlink="http://www.w3.org/1999/xlink">
    <g id="Page-1" stroke="none" stroke-width="1" fill="none" fill-rule="evenodd">
        <g id="merlin_meka_eyes" fill-rule="nonzero">
            <g id="Group">
                <g id="merlin_meka_eyes" fill="#231F20">
                    <path d="M0.11,29.51 C0.11,12.91 12.28,0.73 26.67,0.73 C42.17,0.73 54.34,12.91 54.34,29.51 C54.34,47.23 42.17,58.29 26.67,58.29 C12.28,58.29 0.11,47.23 0.11,29.51 Z" id="Shape"></path>
                    <path d="M674.2,29.51 C674.2,12.91 686.38,0.73 700.77,0.73 C716.27,0.73 728.44,12.91 728.44,29.51 C728.44,47.23 716.26,58.29 700.77,58.29 C686.38,58.29 674.2,47.23 674.2,29.51 Z" id="Shape"></path>
                </g>
                <g id="merlin_meka_eyes_closed" transform="translate(0.000000, 30.000000)" fill="#221F1F">
                    <path d="M0.11,0.51 C2.56,13.26 8.76,27.06 27.23,27.06 C43.86,27.06 51.39,16.73 54.35,0.51 C54.35,18.23 42.18,29.29 26.68,29.29 C12.28,29.29 0.11,18.23 0.11,0.51 Z" id="Shape"></path>
                    <path d="M674.2,0.51 C676.65,13.26 682.85,27.06 701.32,27.06 C717.95,27.06 725.48,16.73 728.44,0.51 C728.44,18.23 716.27,29.29 700.77,29.29 C686.38,29.29 674.2,18.23 674.2,0.51 Z" id="Shape"></path>
                </g>
            </g>
        </g>
    </g>
</svg>